<svg transform="scale(1)" version="1.1" id="SHmEbE1892" xmlns="http://www.w3.org/2000/svg" xmlns:xlink="http://www.w3.org/1999/xlink" x="0px" y="0px" viewBox="0 0 500 500" xml:space="preserve" class="pbimage_pbimage__wrapper__image__0LEis false"><title>Crypto Wallet</title><style type="text/css"> .st0{fill:#128FFF;} .st1{fill:#111111;} .st2{fill:#FFFFFF;}
 .st2{fill:#FFFFFF;}
 .st1{fill:#111111;}
 .st0{fill:#128FFF;}</style><g id="shadow"><path class="st0" d="M65.3,271.9c-0.6,41.9,20.1,81.4,46.3,114c13,16.2,27.8,31.4,46.2,41c8.4,4.4,17.5,7.3,26.8,8.7
		c10,1.4,18.9-1.3,28.7-1.4c7.5-0.1,13.4,4.8,20.4,6.9c9.5,2.8,19.8,1.9,29.2-0.7c14.3-4,27.7-11.4,42.3-13.8
		c18.4-3,37.4,2,55.6-1.8c23.2-4.9,41.4-23.6,52.7-44.5s16.9-44.2,24.6-66.7c6.8-19.7,15.2-39.4,15.7-60.2
		c0.5-24.3-10.3-47.6-24.4-67.4s-31.7-36.8-47.4-55.4c-21.6-25.5-41.8-55.6-73.5-66.4c-22.4-7.7-46.9-4.2-70.3-0.8
		c-25.2,3.8-51.2,7.8-72.9,21.3c-25.9,16.2-42.2,43.9-57.3,70.4C87.3,191.6,65.9,230,65.3,271.9z M327.1,393.5
		c8.4-4.9,18.4-6,27.6-8.6c12.9-3.8,24.5-10.9,33.8-20.6c1.4-1.7,3.1-3.1,5-4.2c2-0.9,4.6-0.8,6,0.9s1,4.1,0.4,6.2
		c-4.1,15.2-13.7,28.4-27,36.9c-9.3,5.8-20,9.2-30.9,9.8c-5.7,0.4-18,3.3-22.9-0.5C311.3,407.3,321.5,396.8,327.1,393.5L327.1,393.5
		z" fill="#128FFF"></path><path class="st0" d="M316.3,448.7c3.3-0.5,7.1-2,7.6-5.3c0.5-3.1-2.5-5.6-5.3-6.9c-6.5-2.9-14-2.8-20.9-1s-13.3,5.2-19.5,8.6
		c-1.6,0.8-3.3,2-3.4,3.8c-0.1,1.6,1.5,2.9,3,3.2c1.6,0.2,3.2,0,4.8-0.6c5.8-1.7,9.8-3.1,15.7-2.2S310.3,450,316.3,448.7z" fill="#128FFF"></path><path class="st0" d="M115.3,124.9c2.5-6-5.2-11.1-9.6-6.3c-2.1,2.4-4,4.8-5.8,7.5c-15,21.7-29.5,43.9-40,68.1s-17,50.5-15.3,76.8
		c0.2,3.1,0.9,6.8,4,7.7c2,0.5,4.1-0.1,5.4-1.7c2.2-2.4,2.5-5.6,2.9-8.8c2.6-23.4,9.1-46,18.3-67.6c3.9-9.2,6.7-16.3,12.4-24.7
		c6.3-9.3,12.1-19,17.3-29C108.7,139.7,112.1,132.3,115.3,124.9z" fill="#128FFF"></path><path class="st0" d="M61,296.2c-0.3-2.4-0.6-4.9-2-6.9s-4.4-3.1-6.4-1.7c-1.5,1-2,3-2.3,4.8c-1.7,9.8-1.1,19.8,1.8,29.3
		c2,6.8,11.6,12,12.8,2.3c0.4-3.3-1.4-7.8-1.8-11.1C62.3,307.4,61.7,301.8,61,296.2z" fill="#128FFF"></path></g><g id="back-wallet"><path class="st1" d="M279.1,129.5c2.8-0.6,5.9-1,8.3,0.5c2.2,1.4,3.2,4,4.1,6.4c17.9,50.3,30.9,102.2,38.9,155
		c1.5,9.6,2.4,20.5-3.6,28.2c-4.6,5.8-12.2,8.2-19.3,10.5c-59.4,18.6-116.3,44.4-169.4,76.7c-15.5-27.6-19.1-60.1-22.4-91.6
		c-2.4-23-4.7-46-7.3-68.9c-1.4-12.9-6.1-26.4,3.6-37.1c12.5-13.8,31.6-24.4,47.5-33.7c17.4-10.3,35.7-19.2,54.5-26.7
		C235.1,140.3,256.9,133.9,279.1,129.5z"></path><path class="st1" d="M142.2,241.1c-10,0-16.2-2.6-18.8-7.9c-2.4-4.9-0.7-10.4,1.8-14c2.6-3.9,6.4-6.7,10.7-9.7
		c13.5-9.6,27.6-18.4,42.1-26.4c26.9-15,53.3-29,80.1-35.5c23.9-5.8,31.3,16.1,37.8,35.4c1.2,3.7,2.4,7.2,3.7,10.4
		c1.8,4.5,3.5,9.6,1.3,14c-2,4-6.6,5.8-10.7,7.2c-47.1,15.8-96.2,24.7-145.8,26.4C143.6,241,142.9,241.1,142.2,241.1z M265.4,147.7
		c-2.4,0-4.7,0.3-7,0.9c-26.7,6.5-53,20.4-79.9,35.4c-14.5,8-28.5,16.7-42,26.3l0,0c-4.2,2.9-7.8,5.6-10.4,9.4
		c-2.2,3.4-3.9,8.5-1.7,13c2.6,5.3,9.1,7.6,20.1,7.3c49.5-1.7,98.5-10.6,145.5-26.4c3.9-1.3,8.3-3,10.1-6.7c2-4,0.4-8.7-1.3-13.2
		c-1.3-3.2-2.5-6.7-3.7-10.4C289.3,166.5,282.9,147.7,265.4,147.7z M136.1,209.9L136.1,209.9z"></path></g><g id="bitcoins"><path class="st2" d="M193.9,61.3c-20.8,16.2-31.2,45.3-23.9,70.6c7.8,26.9,35.7,46.5,63.7,44.8s53.2-24.7,57.6-52.3
		c5.8-36.2-27.1-77-64.8-75.4C214.7,49.6,203.3,53.9,193.9,61.3z"></path><path class="st1" d="M230.3,177.5c-27,0-53.4-19.4-61-45.4c-7.4-25.2,2.6-54.6,24.1-71.4c9.5-7.5,21-11.9,33.1-12.6
		c17.2-0.8,34.6,7.3,47.8,22.1c14,15.7,20.6,36,17.7,54.2c-4.5,27.9-30.1,51.2-58.3,53C232.6,177.4,231.4,177.5,230.3,177.5z
		 M193.9,61.3l0.5,0.6c-21.1,16.4-30.8,45.1-23.6,69.8c7.4,25.4,33.1,44.3,59.5,44.3c1.1,0,2.3,0,3.4-0.1
		c27.6-1.7,52.6-24.4,56.9-51.7c2.8-17.8-3.6-37.6-17.4-53c-12.9-14.4-29.9-22.3-46.6-21.6c-11.7,0.7-23,5-32.2,12.2L193.9,61.3z"></path><path class="st2" d="M197.6,65.7c-18.9,14.8-28.4,41.2-21.7,64.2c7.1,24.5,32.5,42.3,58,40.7s48.4-22.4,52.4-47.7
		c5.3-33-24.6-70.1-58.9-68.6C216.5,55,206.2,59,197.6,65.7z"></path><path class="st1" d="M230.7,171.5c-24.6,0-48.6-17.6-55.5-41.4c-6.7-23,2.4-49.7,22-65l0.5,0.6l-0.5-0.6
		c8.6-6.8,19.2-10.8,30.2-11.5c15.6-0.7,31.6,6.6,43.6,20.1c12.8,14.3,18.8,32.8,16.1,49.4c-4,25.5-27.4,46.7-53.1,48.3
		C232.9,171.5,231.8,171.5,230.7,171.5z M229.4,55.1c-0.7,0-1.3,0-2,0c-10.7,0.6-20.9,4.5-29.3,11.1c-19.2,14.9-28,41-21.5,63.4
		c6.7,23.1,30.1,40.3,54.1,40.3c1,0,2.1,0,3.1-0.1c25-1.6,47.8-22.2,51.7-47c2.6-16.2-3.3-34.2-15.8-48.1
		C258.6,62.2,244,55.1,229.4,55.1L229.4,55.1z"></path><path class="st1" d="M203.5,144.4c5.8-26.4,12.2-53.1,18.9-79.3l9.7,2.5c-6.7,26.1-13.1,52.7-18.8,79L203.5,144.4z"></path><path class="st1" d="M199.5,132.8l1.2-10c9.6,1.2,19,3,28.4,5.4l1.1,0.3c4.6,1.2,8.9,2.3,12.8,1.8c3.1-0.4,6.6-2.7,6.9-5.5
		c0.2-1.9-1.1-4.2-3.3-5.8c-2.6-2-6.1-3.1-9.4-4.2l-20.7-6.8l2.4-9.7c8.2,1.4,16.5,2.4,24.8,2.9c1.7,0.1,7,0.4,8.6-1.6
		c0.8-1,0.6-3.1-0.3-4.7c-1.1-1.8-3-3.5-6.2-5.3c-10.6-6.1-23-8.4-35.1-6.5l-1.6-9.9c14.4-2.2,29.1,0.5,41.7,7.8
		c3.2,1.9,7.3,4.6,9.8,8.9c3,5.1,2.9,11.5-0.2,15.8c-2,2.6-4.8,4.4-8,5.1l0.5,0.3c4.9,3.8,7.7,9.4,7.2,14.8
		c-0.8,8.2-8.4,13.5-15.5,14.5c-6,0.9-11.7-0.6-16.8-2l-1.1-0.3C217.7,135.7,208.6,134,199.5,132.8z"></path><path class="st1" d="M233.4,81.5c0.7-5.2,1.7-10.3,3.2-15.4l9.6,2.9c-1.3,4.5-2.3,9.1-2.9,13.8L233.4,81.5z"></path><path class="st2" d="M129.9,170.1c-7.1,27.6,3.2,59.5,26.3,76.3c24.5,17.9,61.4,16.2,84.2-3.8s29.2-56.4,14.7-83
		c-19-34.8-74.2-48.1-105.4-21.7C139.9,146.4,133,157.6,129.9,170.1z"></path><path class="st1" d="M195.6,259.5c-14.2,0-28.4-4.1-39.9-12.5c-23-16.7-33.9-48.4-26.6-77.1c3.2-12.7,10.1-24.1,20-32.6
		c14.2-12,34.5-16.7,55.5-12.8c22.4,4.2,41.4,17.1,51,34.7c14.7,26.9,8.2,63.7-14.8,83.9C228.5,254,212.1,259.5,195.6,259.5z
		 M190.2,124.7c-15.3,0-29.4,4.8-40,13.8c-9.6,8.4-16.5,19.5-19.5,31.9c-7.2,28,3.5,59.1,26,75.5c24.2,17.6,60.8,16,83.3-3.8
		s28.9-55.8,14.5-82.1c-9.4-17.1-28-29.8-50-33.9C199.7,125.2,195,124.7,190.2,124.7z M129.9,170.1L129.9,170.1z"></path><path class="st2" d="M136,171.5c-6.5,25.2,2.9,54.1,23.9,69.4c22.3,16.3,55.9,14.7,76.6-3.5s26.6-51.3,13.4-75.5
		c-17.3-31.7-67.5-43.7-95.9-19.8C145.1,149.8,138.8,160.1,136,171.5z"></path><path class="st1" d="M195.8,252.9c-13,0.1-25.7-3.8-36.3-11.4c-20.9-15.2-30.9-44.1-24.2-70.2l0,0c2.9-11.6,9.2-21.9,18.2-29.8
		c13-11,31.4-15.2,50.6-11.6c20.4,3.8,37.8,15.6,46.5,31.6C264,186,258,219.6,237.1,238C225.8,247.8,210.8,252.9,195.8,252.9z
		 M190.9,130.2c-13.9,0-26.7,4.3-36.4,12.5c-8.8,7.6-15,17.7-17.8,29c-6.5,25.5,3.2,53.7,23.6,68.6c22,16,55.2,14.5,75.7-3.4
		s26.3-50.7,13.2-74.6c-8.5-15.6-25.5-27.1-45.4-30.8C199.6,130.6,195.3,130.2,190.9,130.2L190.9,130.2z M136,171.5L136,171.5z"></path><path class="st1" d="M193.2,235c-12.5-26.5-24.7-53.6-36.3-80.5l10-4.3c11.5,26.8,23.7,53.8,36.1,80.1L193.2,235z"></path><path class="st1" d="M182.1,227.8l-5.6-9.4c9-5.3,18.3-10,27.9-14.1l1.1-0.5c4.7-2,9.1-3.9,12.2-7c2.4-2.4,3.9-6.7,2.3-9.2
		c-1.1-1.7-3.7-2.9-6.7-2.8c-3.5,0-7.2,1.4-10.9,2.6l-22.2,7.9l-4.4-9.9c8-4.2,15.7-8.9,23.2-13.9c1.6-1,6.3-4.3,6.2-7.1
		c0-1.4-1.5-3-3.4-3.8c-2.1-0.9-4.9-1-8.9-0.4c-13.1,1.8-25.3,8-34.4,17.6l-7.9-7.5c10.8-11.4,25.3-18.8,40.9-20.9
		c4-0.5,9.3-0.9,14.3,1.1c6,2.4,10.1,7.9,10.2,13.7c0,3.5-1.2,7-3.5,9.7h0.6c6.7,0,12.8,3,15.9,7.9c4.8,7.5,1.8,17.1-3.7,22.6
		c-4.5,4.7-10.5,7.2-15.7,9.4l-1.1,0.5C199.6,218.2,190.6,222.7,182.1,227.8z"></path><path class="st1" d="M177.1,161.3c-2.9-4.9-5.4-10-7.4-15.3l10.1-3.9c1.8,4.7,4.1,9.3,6.6,13.7L177.1,161.3z"></path><path class="st2" d="M270.2,110.5c-22.5,17.5-33.8,49-25.9,76.4c8.5,29.1,38.7,50.3,69,48.4s57.6-26.7,62.4-56.7
		c6.2-39.2-29.3-83.4-70.1-81.6C292.7,97.8,280.3,102.5,270.2,110.5z"></path><path class="st1" d="M309.6,236.2c-29.2,0-57.7-20.9-65.9-49.1c-7.9-27.3,2.8-59.1,26.1-77.2c10.3-8.1,22.8-12.9,35.8-13.6
		c18.6-0.8,37.5,7.9,51.7,23.9c15.1,17,22.3,38.9,19.2,58.6c-4.8,30.2-32.5,55.4-63.1,57.3C312.1,236.2,310.8,236.2,309.6,236.2z
		 M308,97.7c-0.8,0-1.6,0-2.4,0c-12.7,0.7-24.9,5.4-34.9,13.3l0,0c-22.9,17.8-33.4,48.9-25.6,75.6c8,27.6,35.9,48,64.5,48
		c1.2,0,2.5,0,3.7-0.1c29.9-1.9,57-26.5,61.7-56.1c3.1-19.3-4-40.7-18.8-57.4C342.8,106.2,325.3,97.7,308,97.7z M270.2,110.5
		L270.2,110.5z"></path><path class="st2" d="M274.2,115.3c-20.5,16-30.8,44.6-23.5,69.6c7.7,26.5,35.2,45.8,62.8,44.1s52.4-24.3,56.8-51.6
		c5.7-35.7-26.7-75.9-63.8-74.3C294.7,103.7,283.5,108,274.2,115.3z"></path><path class="st1" d="M310.1,229.8c-26.6,0-52.6-19.1-60.1-44.7c-7.2-24.9,2.5-53.8,23.8-70.4l0,0c9.3-7.4,20.7-11.7,32.6-12.4
		c17-0.7,34.1,7.2,47.1,21.8c13.8,15.5,20.3,35.4,17.5,53.4c-4.4,27.5-29.6,50.5-57.5,52.2C312.4,229.7,311.2,229.8,310.1,229.8z
		 M308.6,103.8c-0.7,0-1.4,0-2.1,0.1c-11.6,0.7-22.7,4.9-31.8,12.1c-20.8,16.2-30.3,44.5-23.3,68.8c7.3,25,32.6,43.7,58.6,43.7
		c1.1,0,2.2,0,3.4-0.1c27.2-1.7,51.8-24.1,56.1-51c2.8-17.5-3.6-37-17.1-52.2C340.3,111.4,324.4,103.7,308.6,103.8L308.6,103.8z
		 M274.2,115.3L274.2,115.3z"></path><path class="st1" d="M280.6,200.4c6.3-28.6,13.2-57.5,20.5-85.9l10.5,2.7c-7.3,28.2-14.1,57-20.4,85.5L280.6,200.4z"></path><path class="st1" d="M276.2,188l1.3-10.8c10.4,1.3,20.6,3.2,30.7,5.8l1.2,0.3c4.9,1.3,9.6,2.5,13.9,1.9c3.4-0.5,7.2-2.9,7.5-5.9
		c0.2-2.1-1.2-4.5-3.5-6.3c-2.8-2.1-6.5-3.4-10.2-4.6l-22.5-7.3l2.6-10.5c8.9,1.5,17.8,2.6,26.8,3.2c1.9,0.1,7.6,0.5,9.3-1.8
		c0.8-1.1,0.7-3.3-0.4-5.1c-1.2-2-3.2-3.8-6.7-5.8c-11.5-6.6-24.9-9.1-38-7.1l-1.7-10.8c15.6-2.4,31.5,0.6,45.1,8.4
		c3.5,2,7.9,5,10.7,9.7c3.3,5.6,3.2,12.4-0.3,17.1c-2.2,2.8-5.2,4.8-8.7,5.5c0.2,0.1,0.4,0.2,0.5,0.4c5.3,4.1,8.3,10.2,7.8,16
		c-0.8,8.8-9.1,14.6-16.8,15.7c-6.5,0.9-12.7-0.7-18.2-2.1l-1.2-0.3C295.8,191.1,286.1,189.2,276.2,188z"></path><path class="st1" d="M313,132.4c0.7-5.6,1.9-11.2,3.5-16.7l10.4,3.1c-1.4,4.9-2.5,9.9-3.1,14.9L313,132.4z"></path></g><g id="wallet"><path class="st2" d="M118.4,227.8c5.3,1.5,10.8,0.6,16.2-0.3c73.1-12.7,144.5-42.4,218.5-37.7c7.4,0.5,15.8,1.8,20.1,7.8
		c2.1,3,3,6.6,3.8,10.2c11.3,51,22.7,102.1,34,153.1c1.6,7.3,3,15.6-1.3,21.6c-4.8,6.7-14.2,7.4-22.4,7.7
		c-73.3,2.2-146.1,11.4-217.6,27.5c-11.2,2.5-24.6,4.7-33-3.1c-4.5-4.1-6.5-10.2-8.3-16.1c-15.5-50.8-24.7-103.4-27.4-156.5
		c-0.2-5.1-1.7-18,2.6-21.9C108,216.2,112.7,226.2,118.4,227.8z"></path><path class="st1" d="M152.8,420.8c-6.2,0-12.1-1.4-16.7-5.6s-6.6-10.1-8.5-16.4c-15.5-50.9-24.7-103.5-27.4-156.6
		c0-0.6-0.1-1.3-0.1-2c-0.4-6.3-1.1-16.8,3-20.5c3.2-2.9,6.4,0.1,9.4,3c2,1.9,4,3.8,6.1,4.4c5,1.4,10.4,0.6,15.9-0.3
		c24.3-4.2,48.8-10.4,72.5-16.4c47.5-12,96.7-24.4,146.2-21.3c7.7,0.5,16.1,1.8,20.7,8.1c2.3,3.1,3.1,7.1,3.9,10.5l33.9,153.1
		c1.7,7.5,3,16-1.4,22.2c-5,6.9-14.5,7.7-23,8c-73.2,2.2-146,11.4-217.5,27.5C164.3,419.8,158.5,420.7,152.8,420.8z M105.8,220
		c-0.7,0-1.3,0.3-1.8,0.8c-3.6,3.2-2.9,13.6-2.5,19.3c0.1,0.8,0.1,1.4,0.1,2c2.7,53,11.9,105.5,27.3,156.3
		c1.9,6.1,3.9,11.8,8.1,15.7c8.2,7.5,21,5.4,32.4,2.9c71.5-16.1,144.5-25.3,217.8-27.5c8.2-0.2,17.3-1,21.9-7.4
		c4.1-5.7,2.9-13.5,1.2-21L376.4,208c-0.7-3.3-1.6-7.1-3.7-10c-4.2-5.8-12.3-7-19.6-7.5c-49.3-3.1-98.3,9.3-145.7,21.3
		c-23.7,6-48.3,12.2-72.6,16.4c-5.7,1-11.3,1.8-16.6,0.3l0,0c-2.5-0.7-4.7-2.8-6.8-4.7C109.1,221.6,107.3,220,105.8,220z"></path><path class="st1" d="M158.7,403.9c-0.4,0-0.8-0.2-0.9-0.6c-0.2-0.5,0-1.1,0.5-1.3c0,0,0,0,0,0c62.8-25.9,130.9-36.6,198.6-31
		l1.1,0.1c5.8,0.5,11.8,1,17.4-0.2c6.6-1.4,11.9-5.2,14-10.2c2.3-5.4,0.9-11.8-0.9-18.3l-30.8-114c-1.5-5.5-3.1-11.7-7.4-15.9
		c-5.4-5.4-13.9-6.4-21.4-6.6c-42.7-1.4-84.6,11.9-125.1,24.8c-15.2,4.9-31,9.9-46.6,14.1c-14.8,4-31.6,6.8-43.8-2.4
		c-0.4-0.3-0.5-1-0.2-1.4c0.3-0.4,1-0.5,1.4-0.2c11.6,8.7,27.8,5.9,42.1,2.1c15.5-4.2,31.3-9.2,46.5-14
		c40.7-13,82.7-26.4,125.8-24.9c7.9,0.3,16.8,1.3,22.8,7.2c4.6,4.6,6.5,11.4,7.9,16.8l30.8,114c1.9,6.9,3.3,13.6,0.8,19.6
		c-2.4,5.6-8.1,9.8-15.4,11.3c-5.9,1.2-12.1,0.7-18,0.2l-1.1-0.1c-67.4-5.6-135.1,5-197.6,30.8C159,403.8,158.8,403.9,158.7,403.9z"></path><path class="st1" d="M338,288.2c-8.8,2-18,6.2-21.7,14.4c-3.5,7.9-1.1,17,1.4,25.2c2,6.6,4.4,13.7,10.1,17.6
		c6.3,4.4,14.7,3.5,22.3,2.4c17.3-2.5,34.6-5.4,51.8-8.7c6.4-1.2,13.4-2.9,17.3-8.1c4.7-6.4,3-15.3,1-23
		c-3.6-13.7-7.2-27.7-14.8-39.7c-1.5-2.4-3.2-4.8-5.7-6.1s-5.9-1.3-7.8,0.8s-1.1,6.2,1.6,6.8c-6.1-1.3-23.2,7.1-28.7,10.1
		C356.1,284.8,347.9,286,338,288.2z"></path><path class="st2" d="M344.6,330.9c4.2,3.7,11.2,4,15.3,0.3c3.4-3.1,4.4-8.2,4.3-12.8c-0.2-8.7-6.9-20.1-16.5-13.9
		C339.5,309.8,336.9,324.1,344.6,330.9z"></path><path class="st1" d="M352.6,334.6c-3.1,0-6.1-1.1-8.5-3.1c-3.4-3-5.2-7.7-4.8-13c0.4-6.1,3.5-11.7,8.1-14.6c4.2-2.7,7.6-2,9.7-0.9
		c5,2.6,7.8,9.7,8,15.4c0.1,4.1-0.6,9.8-4.5,13.4C358.3,333.6,355.5,334.6,352.6,334.6z M345.1,330.3c4,3.5,10.6,3.6,14.3,0.3
		c3.5-3.2,4.1-8.4,4-12.2c-0.1-5.1-2.7-11.8-7.2-14.1c-2.5-1.3-5.3-1-8.1,0.8c-4.1,2.6-7,8-7.4,13.5
		C340.5,323.4,342,327.6,345.1,330.3L345.1,330.3z"></path></g><g id="clap"><path class="st1" d="M377.3,72.2c0.8-2.3,1.9-4.5,3.5-6.5c1.7-1.9,4.3-3.2,5.8-2.4c2.1,1.2,0.8,5.1-0.6,8.2
		c-2,4.4-11.7,29.2-15.4,28.2C366.4,98.7,375.6,76.5,377.3,72.2z"></path><path class="st1" d="M422.4,102.8c2.3-1.1,4.4-2.5,6.5-4c2-1.6,3.9-3.7,4.5-5.6c0.9-3.2-2.3-4.3-5.9-3.2s-7.3,3.9-10.8,6.6
		c-7,5.5-15.4,12-21.1,18.6C398.8,117.9,416.8,105.9,422.4,102.8z"></path><path class="st1" d="M453.7,141.8c3-3.3,2.5-6-0.1-6.7s-6.6,0.3-10.4,1.2c-5.6,1.4-34.3,6.2-26.9,12.3
		C420.9,152.5,443.6,145.3,453.7,141.8z"></path></g></svg>