<svg transform="scale(1)" version="1.1" id="gn45d3IHpL" xmlns="http://www.w3.org/2000/svg" xmlns:xlink="http://www.w3.org/1999/xlink" x="0px" y="0px" viewBox="0 0 500 500" xml:space="preserve" class="pbimage_pbimage__wrapper__image__0LEis false"><title>Crypto Airdrop</title><style type="text/css"> .st0{fill:#FFFFFF;} .st1{fill:#111111;} .st2{fill:#128FFF;}
 .st2{fill:#128FFF;}
 .st1{fill:#111111;}
 .st0{fill:#FFFFFF;}</style><g id="clouds"><g id="cloud_2"><path class="st0" d="M287,204.7H34.1c0.9-9.6,9.2-17.7,18.9-17.6c5.6,0.1,11.1,2.6,16.8,1.6c1.9-0.3,3.7-1.1,5.1-2.4
			c5.2-4.9,1.9-12.6,1.9-19.4c0.1-11.4,12.8-20.8,23.7-17.6c-7.9-13.7-0.7-32.9,13.3-40.3s32-4.2,44.5,5.5
			c9.8-6.7,24.2-5.7,32.9,2.3s11,22.3,5.1,32.6c10.3,1.1,17.8,10.4,16.7,20.8c0,0,0,0,0,0c-0.7,7.2,6.3,13,12.9,10.1l0.2-0.1
			c5.2-2.3,9.7-6.3,15.3-7.7c3.8-0.9,7.7,0.2,10.6,2.7c2.4,2.3-0.8,6.3-3.5,4.4c-0.2-0.1-0.4-0.3-0.6-0.5
			c6.7,1.5,12.6,5.5,16.3,11.3c3.1-6.2,7.6-13.4,15-12.4c1.2,0.2,2.3,0.6,3.4,1.2c5.9,3.4,10.1,8.5,14.3,13.8c2,2.5,1.6,6.1-0.9,8.1
			c-1,0.8-2.3,1.3-3.6,1.3l0,0c-0.4,0.3-0.7,0.7-1,1c0,0.1-0.2,0.2-0.5,0.4C289.7,204.4,288.4,204.7,287,204.7z"></path><path class="st1" d="M287,205.5H34.1c-0.4,0-0.8-0.3-0.8-0.7c0,0,0,0,0-0.1c1-10.2,9.7-18.4,19.6-18.3c2.4,0.1,4.7,0.4,7,0.9
			c3.3,0.6,6.4,1.3,9.7,0.7c1.8-0.3,3.4-1,4.7-2.2c3.5-3.2,2.8-7.9,2.2-12.8c-0.3-2-0.5-4-0.5-6c0-5.6,3.1-11.1,8.1-14.9
			c4.2-3.3,9.7-4.6,14.9-3.8c-2.9-6.3-3.4-13.4-1.3-19.9c2.4-8.5,8-15.6,15.7-19.9c13.3-7.1,31.3-5,44.8,5.3
			c10-6.6,24.6-5.4,33.4,2.7s11.1,22.1,5.7,32.5c10.3,1.7,17.4,11.1,16.3,21.5c-0.3,3.2,1.1,6.4,3.7,8.4c2.4,1.8,5.5,2.2,8.2,1
			l0.1-0.1c2-0.9,4-2,5.8-3.2c3-1.8,6.1-3.7,9.6-4.5c4-0.9,8.2,0.1,11.3,2.9c1.3,1.3,1.4,3.4,0.1,4.8l-0.2,0.2
			c4.7,1.9,8.7,5.1,11.7,9.2c3.2-6.2,7.8-12.7,15.1-11.7c1.3,0.2,2.5,0.6,3.7,1.3c6.2,3.5,10.6,9.1,14.5,13.9c2.3,2.8,1.8,6.9-1,9.1
			c-1.1,0.9-2.4,1.4-3.8,1.4l-0.3,0.3c-0.1,0.1-0.2,0.3-0.4,0.4c-0.2,0.3-0.5,0.5-0.8,0.7C289.9,205.2,288.5,205.5,287,205.5z
			 M35,204h252c1.2,0,2.4-0.3,3.5-0.8l0.2-0.1c0-0.1,0.1-0.1,0.1-0.2c0.2-0.1,0.3-0.3,0.5-0.5c0.2-0.2,0.4-0.4,0.5-0.5
			c0.1-0.1,0.3-0.2,0.5-0.2c1.9,0,3.7-1.1,4.5-2.8c0.8-1.7,0.6-3.8-0.6-5.3c-3.8-4.8-8.2-10.2-14.1-13.6c-1-0.6-2-0.9-3.1-1.1
			c-6.8-0.9-11.2,6-14.2,12c-0.1,0.2-0.4,0.4-0.6,0.4c-0.3,0-0.5-0.1-0.7-0.4c-3-4.7-7.5-8.3-12.8-10.1c-1,0.3-2,0.1-2.8-0.5
			c-0.2-0.2-0.4-0.3-0.6-0.5c-0.3-0.3-0.3-0.8,0-1.1c0.2-0.2,0.4-0.3,0.7-0.2c0.9,0.2,1.8,0.4,2.7,0.7c0.3-0.1,0.5-0.3,0.7-0.6
			c0.7-0.8,0.7-2-0.1-2.8c-2.7-2.4-6.4-3.3-9.9-2.5c-3.3,0.8-6.1,2.5-9.1,4.3c-1.9,1.2-3.9,2.3-6,3.3l-0.2,0.1
			c-3.2,1.4-6.9,1-9.7-1.1c-3-2.3-4.7-6-4.3-9.7c0.4-3.5-0.3-7.1-1.9-10.3c-2.9-5.3-8.1-9-14.2-9.7c-0.3,0-0.5-0.2-0.6-0.4
			c-0.1-0.2-0.1-0.5,0-0.7c5.7-10,3.5-23.9-4.9-31.7s-22.5-8.8-32-2.2c-0.3,0.2-0.6,0.2-0.9,0c-13.1-10.2-30.7-12.4-43.7-5.5
			c-7.3,4.1-12.7,10.9-15,19c-2.1,7.2-1.4,14.4,2,20.3c0.2,0.3,0.1,0.6-0.1,0.8c-0.2,0.2-0.5,0.3-0.8,0.2
			c-4.9-1.5-10.6-0.3-15.3,3.2s-7.5,8.6-7.5,13.7c0,1.9,0.2,3.9,0.5,5.8c0.7,5.1,1.3,10.4-2.7,14.1c-1.5,1.4-3.4,2.3-5.5,2.6
			c-3.6,0.6-7,0-10.3-0.7c-2.2-0.5-4.5-0.8-6.7-0.9C44.1,187.7,36.2,194.9,35,204z M290.6,203.7L290.6,203.7z"></path></g><g id="cloud_3"><path class="st0" d="M463.5,120.8H348.3c0.1-1.7,0.2-3.3,0.3-5c1.8-2.1,4.9-2.6,7.6-3.2s5.8-1.8,6.6-4.5c0.5-1.5,0.1-3.2,0.5-4.7
			c0.6-1.8,2.1-3.2,4-3.8c1.8-0.5,3.7-0.7,5.6-0.4c-0.8-2.5,1.7-5,4.3-5.3s5,1,7.2,2.4c-0.3-4,2.2-7.7,6-8.9
			c1.6-0.4,3.3-0.4,4.8-1.1c1.9-0.9,3.1-2.9,4.8-4.2c3.6-2.8,8.7-2.5,11.9,0.7c0.2-1.9,2.1-3.2,4-3.4c1.9,0,3.8,0.5,5.4,1.4
			c2.8,1.2,5.3,3,7.4,5.3c1.9,2.4,3,5.8,1.9,8.7c3.5,1.2,5.4,5,4.2,8.5c-0.1,0.2-0.2,0.4-0.2,0.6c-1,2-3.1,4.1-1.8,5.9
			c1.5,2.2,5.2,0,7.5,1.3c1.1,0.6,1.8,2,3,2.2c1.4,0.2,2.6-1.2,4.1-1.2c2-0.1,3.1,2.3,4.7,3.5s3.8,1,5.8,1.1
			S463.2,118.8,463.5,120.8z"></path><path class="st1" d="M463.5,121.6H348.3c-0.2,0-0.4-0.1-0.5-0.2c-0.1-0.2-0.2-0.4-0.2-0.6l0.3-5c0-0.2,0.1-0.3,0.2-0.4
			c1.8-2.1,4.6-2.7,7.1-3.2l0.9-0.2c3.4-0.8,5.4-2.1,6-4c0.2-0.7,0.3-1.5,0.2-2.2c0-0.8,0.1-1.7,0.3-2.5c0.7-2,2.4-3.6,4.5-4.2
			c1.6-0.5,3.3-0.7,5-0.5c0-0.9,0.3-1.8,0.8-2.6c1-1.5,2.5-2.4,4.3-2.7c2.3-0.1,4.6,0.5,6.5,1.8c0.3-3.8,2.9-7.1,6.5-8.3
			c0.7-0.2,1.3-0.3,2-0.4c2.2-0.1,4.2-1.3,5.5-3.1c0.6-0.6,1.2-1.2,1.8-1.8c3.5-2.7,8.4-2.7,12-0.1c0.9-1.6,2.5-2.6,4.3-2.8
			c2,0,4,0.4,5.8,1.4c3,1.2,5.6,3.1,7.7,5.5c2.1,2.4,2.9,5.6,2.2,8.7c1.7,0.7,3,2.1,3.7,3.8c0.9,1.9,0.9,4.2-0.1,6.1
			c-0.2,0.5-0.5,0.9-0.8,1.4c-1,1.7-1.7,2.8-1,3.8c0.5,0.8,1.6,0.8,3.2,0.6c1.3-0.2,2.7-0.1,4,0.5c0.5,0.3,1,0.7,1.4,1.1
			c0.4,0.5,0.8,0.8,1.4,1c0.6,0,1.2-0.2,1.8-0.5c0.7-0.4,1.4-0.6,2.2-0.7c1.6-0.1,2.8,1.2,3.7,2.2c0.4,0.5,0.9,1,1.5,1.4
			c1.3,0.7,2.7,1,4.2,0.9l1.3,0.1c2.1,0.2,5.8,2.3,6.3,4.8c0,0.2,0,0.4-0.1,0.6C464,121.4,463.8,121.5,463.5,121.6z M349.1,120.1
			h113.3c-1.1-1.4-2.7-2.4-4.5-2.7l-1.2-0.1c-1.7,0.1-3.4-0.3-4.9-1.2c-0.6-0.5-1.2-1-1.7-1.6c-0.9-0.9-1.6-1.8-2.6-1.7
			c-0.5,0.1-1.1,0.3-1.5,0.6c-1.5,1.1-3.6,0.9-4.8-0.6c0,0-0.1-0.1-0.1-0.1c-0.3-0.3-0.6-0.6-1-0.9c-1-0.4-2.1-0.5-3.1-0.3
			c-1.6,0.1-3.5,0.3-4.6-1.3c-1.2-1.8,0-3.8,1-5.4c0.3-0.4,0.5-0.9,0.8-1.3c1.3-3-0.1-6.5-3.1-7.8c-0.1-0.1-0.3-0.1-0.4-0.2
			c-0.2-0.1-0.4-0.2-0.5-0.4c-0.1-0.2-0.1-0.4,0-0.6c0.8-2.8,0.1-5.8-1.8-7.9c-2-2.2-4.5-4-7.3-5.2c-1.5-0.9-3.2-1.3-5-1.3
			c-1.5,0.1-3.1,1.2-3.3,2.7c0,0.3-0.2,0.5-0.5,0.6c-0.3,0.1-0.6,0-0.8-0.2c-3-2.8-7.6-3.1-10.9-0.6c-0.6,0.5-1.1,1.1-1.7,1.6
			c-0.9,1.1-2,2-3.2,2.7c-1,0.4-2,0.7-3.1,0.8c-0.6,0.1-1.2,0.2-1.8,0.4c-3.5,1.1-5.7,4.5-5.4,8.1c0,0.3-0.1,0.6-0.3,0.7
			c-0.2,0.2-0.6,0.2-0.8,0c-2.1-1.3-4.4-2.5-6.8-2.2c-1.3,0.2-2.5,0.9-3.2,2c-0.5,0.7-0.6,1.5-0.4,2.4c0.1,0.2,0,0.5-0.1,0.7
			c-0.2,0.2-0.4,0.3-0.6,0.3c-1.8-0.2-3.6-0.1-5.3,0.4c-1.6,0.5-2.9,1.7-3.5,3.3c-0.2,0.7-0.2,1.4-0.2,2.1c0,0.9-0.1,1.8-0.3,2.6
			c-0.8,2.4-3.2,4.1-7.1,5l-0.9,0.2c-2.3,0.5-4.7,1-6.2,2.5L349.1,120.1z"></path></g><g id="cloud_1"><path class="st0" d="M346,401.8h119.5c1.3-2-0.6-4.9-2.7-6.1s-4.6-1.3-6.8-2.3s-4-2.7-6.1-3.9s-4.9-1.7-6.8-0.2
			c3.5-2.2,4.5-6.8,2.3-10.2c-1.6-2.5-4.4-3.8-7.3-3.4c1.3-4.3-1.1-8.8-5.3-10.2c-1.1-0.3-2.2-0.4-3.4-0.3c0.4-3.8-3.4-6.9-7.2-7.6
			c-7.7-1.4-15.1,3.6-16.5,11.3c-0.3,1.4-0.3,2.8-0.1,4.2c-4.2,0.1-7.8,3.3-8.2,7.5c-0.1,1.5,0.2,3.2-0.7,4.4
			c-1.2,1.6-3.7,1.4-5.4,0.4s-3-2.6-4.6-3.7s-4-1.6-5.5-0.2c-3.6-4.9-10.5-5.9-15.4-2.3c-3.6,2.7-5.3,7.3-4.1,11.6
			c-2.4,1-4.2,3.1-4.7,5.7l-2.6,1c-3-1.9-6-2.3-6.9,1.1C347.5,398.1,345.7,402.3,346,401.8"></path><path class="st1" d="M346,402.5c-0.1,0-0.2,0-0.3,0c-0.5-0.2-0.6-0.3-0.4-1l0,0l0.1-0.1c0.1-0.3,0.3-0.8,0.6-1.4l0.6-1.5
			c0.2-1.3,1.1-2.3,2.3-2.8c1.4-0.5,3.3-0.2,5.4,1.1l1.9-0.8c0.6-2.4,2.3-4.4,4.5-5.5c-1.2-6.4,3-12.5,9.4-13.7
			c4.1-0.8,8.3,0.7,11,3.9c1.8-1,4.1-0.5,5.8,0.6c0.8,0.5,1.5,1.1,2.2,1.8c0.7,0.7,1.5,1.4,2.4,1.9c1.4,0.8,3.5,1,4.4-0.2
			c0.5-0.9,0.7-1.9,0.6-2.9c0-0.4,0-0.8,0-1.2c0.5-4.3,3.8-7.7,8.1-8.2c-0.5-8.2,5.7-15.3,13.9-15.8c1.2-0.1,2.5,0,3.7,0.2
			c3.9,0.7,7.7,3.7,7.8,7.5c4.9-0.1,9,3.8,9.1,8.7c0,0.6,0,1.2-0.1,1.8c4.5,0,8.1,3.5,8.2,8c0,1.7-0.5,3.4-1.5,4.7
			c1.6,0,3.1,0.4,4.5,1.2c0.9,0.5,1.8,1.1,2.7,1.8c1.8,1.5,4,2.5,6.4,3c1.3,0.3,2.6,0.7,3.9,1.3c1.6,0.9,2.8,2.4,3.4,4.1
			c0.3,1,0.2,2.1-0.4,3c-0.1,0.2-0.4,0.4-0.6,0.4H346.2C346.1,402.5,346.1,402.5,346,402.5z M347.2,401H465c0.2-0.5,0.2-1,0-1.5
			c-0.4-1.4-1.4-2.5-2.6-3.2c-1.1-0.5-2.3-1-3.5-1.2c-1.1-0.2-2.2-0.6-3.2-1c-1.3-0.6-2.5-1.4-3.6-2.2c-0.8-0.6-1.7-1.2-2.5-1.7
			c-1.6-0.9-4-1.5-5.6-0.5l-0.5,0.3c-0.3,0.2-0.8,0.2-1-0.2c-0.2-0.3-0.2-0.8,0.2-1c0.2-0.1,0.3-0.2,0.5-0.3c3-2.2,3.6-6.3,1.5-9.3
			c-1.5-2-3.9-3-6.4-2.7c-0.3,0-0.5-0.1-0.7-0.3c-0.2-0.2-0.2-0.5-0.1-0.7c1.2-3.9-1-8-4.9-9.3c-1-0.3-2-0.4-3-0.3
			c-0.2,0-0.5,0-0.6-0.2c-0.2-0.2-0.2-0.4-0.2-0.6c0.4-3.4-3.1-6.1-6.6-6.8c-7.3-1.4-14.3,3.4-15.7,10.7c-0.2,1.3-0.3,2.7-0.1,4
			c0,0.2,0,0.4-0.2,0.6c-0.1,0.2-0.4,0.2-0.6,0.2c-3.8,0.1-7,3-7.5,6.8c0,0.4,0,0.7,0,1.1c0.1,1.3-0.2,2.6-0.9,3.7
			c-1.4,1.9-4.4,1.8-6.4,0.6c-0.9-0.6-1.8-1.3-2.6-2.1c-0.6-0.6-1.3-1.2-2-1.7c-1.4-1-3.4-1.4-4.5-0.3c-0.2,0.1-0.4,0.2-0.6,0.2
			c-0.2,0-0.4-0.1-0.5-0.3c-3.4-4.5-9.9-5.4-14.4-1.9c-3.2,2.5-4.7,6.6-3.8,10.6c0.1,0.4-0.1,0.7-0.5,0.9c-2.2,0.9-3.8,2.8-4.3,5.1
			c-0.1,0.2-0.2,0.4-0.5,0.5l-2.6,1c-0.2,0.1-0.5,0.1-0.7-0.1c-1.8-1.1-3.4-1.6-4.4-1.2c-0.7,0.3-1.2,1-1.4,1.8l0,0v0.1l0,0L348,399
			c-0.1,0.3-0.3,0.8-0.6,1.4L347.2,401z"></path></g></g><g id="bitcoin-in-parachute"><path class="st2" d="M67.7,251c1-11.3,2.9-22.6,7.1-33.1s11.1-20.2,20.6-26.4c15.4-10,36.3-9.2,52.3-0.3s27.2,25.1,32.4,42.7
		c-4.6-6.2-12.7-9.9-20.2-8.2s-13.5,9.5-12.1,17.1c-4.7-3-9.7-5.4-15-7.1c-3.4-1.1-7.1-1.9-10.6-1c-5.1,1.4-8.5,6.5-9.6,11.7
		s-0.1,10.6,0.8,15.8c-8.2-5.9-19.1-6.6-28-1.9c-4,2.2-7.3,5.4-9.6,9.2c-2.1,3.5-2.3,7.8-4.2,11.1c-2.4-1.6-3-7-3.5-9.7
		C66.9,264.3,67.1,257.6,67.7,251z"></path><path class="st1" d="M142,321.7c-0.1,0-0.2,0-0.3-0.1c-4.3-3.9-10.2-5.5-15.9-7c-1-0.3-2-0.5-3-0.8c-18.9-5.3-35.8-16.1-48.6-31
		c-0.2-0.2-0.1-0.5,0.1-0.7c0.2-0.2,0.5-0.2,0.7,0c0,0,0,0,0,0c12.7,14.7,29.4,25.4,48.1,30.7c1,0.3,2,0.5,3,0.8
		c5.8,1.5,11.8,3.1,16.3,7.2c0.2,0.2,0.2,0.5,0,0.7C142.3,321.6,142.1,321.7,142,321.7L142,321.7z"></path><path class="st1" d="M144,321c-0.2,0-0.3-0.1-0.4-0.2c-11.3-17.7-20.9-36.5-28.8-55.9c-0.1-0.2,0-0.5,0.2-0.7s0.5,0,0.7,0.2
		c0,0,0,0.1,0,0.1c7.9,19.4,17.5,38.1,28.7,55.8c0.1,0.2,0.1,0.5-0.1,0.7C144.2,321,144.1,321,144,321z"></path><path class="st1" d="M147.6,319.3L147.6,319.3c-0.3,0-0.5-0.2-0.5-0.5c0,0,0,0,0,0c0.2-7.6,1.6-15.2,2.9-22.6
		c0.8-4.5,1.7-9.3,2.2-13.9c1.8-15-0.1-26.6-5.8-35.3c-0.2-0.2-0.1-0.5,0.1-0.7c0.2-0.2,0.5-0.1,0.7,0.1c5.9,8.9,7.8,20.7,6,35.9
		c-0.6,4.7-1.4,9.4-2.2,14c-1.3,7.3-2.7,14.9-2.9,22.4C148.1,319.1,147.9,319.3,147.6,319.3C147.6,319.3,147.6,319.3,147.6,319.3z"></path><path class="st1" d="M151.2,316.7c-0.1,0-0.1,0-0.2,0c-0.2-0.1-0.4-0.4-0.3-0.6c0,0,0,0,0,0c3.4-7.9,8-15.2,12.4-22.4
		c3.2-5.1,6.4-10.3,9.2-15.7c5.7-10.9,11.4-27,5.9-41.7c-0.1-0.3,0-0.5,0.3-0.6s0.5,0,0.6,0.3c5.5,15-0.2,31.4-6,42.5
		c-2.8,5.4-6.1,10.6-9.3,15.7c-4.4,7.1-9,14.4-12.4,22.2C151.5,316.6,151.4,316.7,151.2,316.7z"></path><path class="st1" d="M141.6,318.8c-1.6,1.1-3.1,2.5-4.2,4.1c-1.2,1.6-1.6,3.6-1.2,5.6c0.5,2,2.1,3.4,4.2,3.6c2.1,0,3.8-1.7,5.4-3.1
		c2.3-2,4.9-3.6,7.8-4.6c2-0.7,4.3-1.3,5.5-3.1c1-1.6,1.1-3.5,0.3-5.2C155.8,308.4,146,315.6,141.6,318.8z"></path><path class="st1" d="M123.8,354.2c-6.4,22.1,1.1,48,19.3,62.1c19.3,15,49.1,14.5,67.9-1s24.9-44.7,13.9-66.5
		c-14.5-28.5-58.6-40.5-84.4-20.1C132.4,335.3,126.6,344.2,123.8,354.2z"></path><path class="st0" d="M128.7,355.4c-5.8,20.1,1,43.7,17.6,56.5c17.6,13.6,44.7,13.2,61.8-0.9s22.7-40.7,12.6-60.5
		c-13.2-26-53.3-36.9-76.8-18.3C136.6,338.2,131.3,346.3,128.7,355.4z"></path><path class="st1" d="M173.1,408c-9.4-21.6-18.6-43.8-27.3-65.7l8.1-3.3c8.6,21.9,17.8,43.9,27.2,65.4L173.1,408z"></path><path class="st1" d="M164.4,401.9l-4.2-7.7c7.4-4.1,15-7.6,22.9-10.7l0.9-0.4c3.8-1.5,7.4-2.9,10-5.3c2-1.9,3.3-5.3,2.1-7.4
		c-0.9-1.4-3-2.4-5.4-2.4c-2.8-0.1-5.9,0.9-8.8,1.9l-18.1,5.8l-3.3-8.1c6.5-3.2,12.9-6.8,19-10.6c1.3-0.8,5.2-3.3,5.2-5.5
		c0-1.1-1.1-2.5-2.6-3.1c-1.7-0.7-3.9-0.9-7.1-0.6c-10.6,1.1-20.5,5.8-28.1,13.3l-6.2-6.2c9-8.9,20.8-14.5,33.4-15.9
		c3.2-0.3,7.5-0.5,11.5,1.3c4.8,2.1,8,6.6,7.9,11.3c-0.1,2.9-1.2,5.6-3.1,7.7h0.5c5.4,0.1,10.3,2.7,12.6,6.8
		c3.6,6.2,1,13.8-3.5,18.1c-3.8,3.7-8.6,5.5-12.9,7.2l-0.9,0.4C178.7,394.6,171.4,398,164.4,401.9z"></path><path class="st1" d="M162.1,348.2c-2.2-4-4.1-8.2-5.6-12.5l8.3-2.9c1.4,3.9,3,7.6,5,11.2L162.1,348.2z"></path><path class="st1" d="M96.1,221.9c0.4,12.2,4.5,24.2,11.4,32.9c-1.1-10.6,3.8-21.7,11.5-26.5s20.6,2.4,26.9,9.8
		c-0.2-10.5-23.8-48.9-30.6-49.4C95.7,187.5,95.6,206,96.1,221.9z"></path></g><g id="bitcoin-in-parachute-2"><path class="st2" d="M258.3,273.6c2.3-3.3,5.1-6.3,8.3-8.9c3.2-2.5,7.1-4,11.2-4.3c6.5-0.2,12.8,3.8,16.1,9.5s3.7,12.7,2.1,19
		c-0.2-2.8-2.1-5.2-4.7-6.2c-2.7-0.9-5.7,0.4-6.9,3c-0.9-1.8-2-3.5-3.3-5c-0.8-1-1.9-1.8-3.1-2.2c-1.9-0.4-3.9,0.3-5.1,1.8
		c-1.2,1.5-2.1,3.2-2.6,5c-1.4-3.3-4.6-5.5-8.2-5.7c-1.6-0.1-3.2,0.3-4.6,1.1c-1.3,0.7-2.1,2-3.3,2.6c-0.4-0.9,0.4-2.7,0.7-3.6
		C255.7,277.5,256.9,275.5,258.3,273.6z"></path><path class="st1" d="M268.2,309.3c-0.2,0-0.4-0.1-0.5-0.4c-0.6-1.9-2.1-3.4-3.5-4.9l-0.8-0.8c-4.9-5.2-8.1-11.6-9.3-18.6
		c-0.1-0.3,0.1-0.5,0.4-0.6c0,0,0,0,0,0c0.3,0,0.5,0.1,0.6,0.4c0,0,0,0,0,0c1.2,6.8,4.3,13.1,9,18.1l0.8,0.8
		c1.5,1.6,3.1,3.2,3.8,5.3c0.1,0.3-0.1,0.5-0.3,0.6C268.3,309.3,268.2,309.3,268.2,309.3z"></path><path class="st1" d="M268.9,309.4c-0.3,0-0.5-0.2-0.5-0.5c-0.2-7.5,0.3-15.1,1.4-22.5c0-0.3,0.3-0.5,0.6-0.4c0,0,0,0,0,0
		c0.3,0,0.5,0.3,0.4,0.6c-1.2,7.4-1.6,14.9-1.4,22.3C269.5,309.2,269.2,309.4,268.9,309.4C269,309.4,269,309.4,268.9,309.4
		L268.9,309.4z"></path><path class="st1" d="M270.4,309.6c-0.1,0-0.2,0-0.3-0.1c-0.2-0.1-0.3-0.5-0.1-0.7c1.5-2.3,3.2-4.4,5.1-6.4c1.1-1.2,2.2-2.5,3.2-3.9
		c3.3-4.2,4.8-8,4.6-11.7c0-0.3,0.2-0.5,0.5-0.5c0,0,0,0,0,0c0.3,0,0.5,0.2,0.5,0.4c0,0,0,0,0,0c0.2,3.9-1.4,7.9-4.8,12.3
		c-1,1.3-2.2,2.6-3.3,3.9c-1.8,2-3.5,4.1-5,6.3C270.7,309.5,270.5,309.6,270.4,309.6z"></path><path class="st1" d="M272,309.4c-0.2,0-0.3-0.1-0.4-0.2c-0.2-0.2-0.1-0.5,0.1-0.7c2.5-1.7,5.2-3.3,8-4.6c1.9-1,3.9-2,5.7-3.1
		c3.7-2.3,8.3-6.1,9.3-11.5c0.1-0.3,0.3-0.4,0.6-0.4c0.3,0.1,0.4,0.3,0.4,0.6c-1.1,5.7-5.9,9.8-9.8,12.1c-1.9,1.1-3.8,2.2-5.8,3.1
		c-2.7,1.3-5.3,2.8-7.8,4.5C272.2,309.4,272.1,309.4,272,309.4z"></path><path class="st1" d="M268.5,308c-0.7,0-1.4,0.2-2,0.5c-0.6,0.3-1.2,0.8-1.4,1.5c-0.2,0.7,0,1.4,0.6,1.9c0.7,0.3,1.5,0.3,2.2,0
		c1.1-0.2,2.2-0.2,3.2,0c0.7,0.2,1.5,0.3,2.2,0c0.6-0.3,1-0.9,1-1.5C274.8,307.4,270.5,307.8,268.5,308z"></path><path class="st1" d="M256.6,315.6c-6,5.6-8.5,14.9-5.5,22.6c3.9,10,15.2,14.9,25.2,11c7-2.7,11.8-9.2,12.3-16.7
		c0.8-11.4-10.5-23.2-22.2-21.6C262.7,311.3,259.3,313,256.6,315.6z"></path><path class="st0" d="M257.8,316.8c-5.5,5.1-7.7,13.6-5,20.6c3.6,9.1,13.8,13.6,22.9,10c6.4-2.5,10.7-8.4,11.2-15.2
		c0.7-10.4-9.6-21.1-20.2-19.7C263.4,313,260.3,314.5,257.8,316.8z"></path><path class="st1" d="M261.8,341.1c1.1-8.4,2.3-16.8,3.7-25.2l3.1,0.5c-1.4,8.3-2.6,16.7-3.7,25.1L261.8,341.1z"></path><path class="st1" d="M260.3,337.6l0.1-3.1c3,0.1,6,0.4,9,0.9l0.4,0.1c1.3,0.3,2.7,0.4,4,0.2c1-0.2,2-1,2-1.9
		c-0.1-0.7-0.5-1.4-1.2-1.7c-0.9-0.5-2-0.9-3-1l-6.6-1.5l0.5-3.1c2.6,0.2,5.2,0.3,7.8,0.2c0.5,0,2.2-0.1,2.6-0.7
		c0.2-0.5,0.1-1.1-0.2-1.5c-0.6-0.7-1.3-1.2-2.1-1.5c-3.5-1.6-7.4-2-11.1-1.1l-0.8-3c4.4-1.1,9-0.6,13.2,1.3
		c1.3,0.5,2.4,1.4,3.3,2.5c1.1,1.4,1.2,3.3,0.4,4.9c-0.5,0.9-1.4,1.5-2.4,1.8l0.1,0.1c1.6,0.9,2.6,2.6,2.6,4.4
		c0,2.6-2.2,4.4-4.4,4.9c-1.7,0.3-3.5,0.2-5.3-0.2l-0.3,0C266,338,263.1,337.7,260.3,337.6z"></path><path class="st1" d="M269.4,320.8c0.1-1.6,0.3-3.3,0.6-4.9l3.1,0.6c-0.3,1.4-0.5,2.9-0.5,4.4L269.4,320.8z"></path><path class="st1" d="M272.3,269.9c-2.1,3.7-3,8-2.5,12.2c1.6-3.5,5.1-6,8.4-6s5.9,4.5,6.4,7.9c1.9-3.3,1.7-19.4-0.3-20.8
		C278.5,259.3,275.1,264.9,272.3,269.9z"></path></g><g id="bitcoin-in-parachute-3"><path class="st2" d="M367.4,282.9c6.6-3.5,13.4-6.6,20.7-8.1s15.1-1.2,21.9,1.7c11,4.8,18.2,16.5,19.1,28.5s-3.9,24-11.6,33.2
		c1.7-4.7,0.8-10.5-2.8-14s-10.1-3.9-13.7-0.4c0-3.7-0.6-7.3-1.5-10.8c-0.5-2.3-1.6-4.5-3.3-6.1c-2.6-2.3-6.6-2.3-9.9-1
		s-5.8,3.8-8.4,6.2c0.2-6.6-3.3-12.8-9.1-16c-2.6-1.4-5.6-2-8.5-1.9c-2.7,0.1-5.1,1.6-7.6,1.7c0-1.9,2.8-4.1,4-5.4
		C359.8,287.3,363.5,284.8,367.4,282.9z"></path><path class="st1" d="M355.8,349.5L355.8,349.5c-0.3,0-0.5-0.3-0.5-0.6c0,0,0,0,0,0c0.6-3.7-0.7-7.5-1.9-11.1
		c-0.2-0.6-0.4-1.3-0.6-2c-3.9-12.3-4.1-25.5-0.6-37.9c0.1-0.3,0.4-0.4,0.6-0.3c0.3,0.1,0.4,0.3,0.3,0.6c0,0,0,0,0,0
		c-3.5,12.2-3.3,25.2,0.6,37.3c0.2,0.6,0.4,1.3,0.6,1.9c1.3,3.8,2.6,7.6,2,11.6C356.3,349.3,356.1,349.5,355.8,349.5z"></path><path class="st1" d="M357,350.3c-0.1,0-0.1,0-0.2,0c-0.2-0.1-0.4-0.4-0.2-0.7c5.6-12.6,12.4-24.7,20.2-36c0.1-0.2,0.5-0.3,0.7-0.2
		c0.2,0.1,0.3,0.5,0.2,0.7c0,0,0,0,0,0c-7.8,11.3-14.5,23.3-20.2,35.9C357.3,350.2,357.2,350.3,357,350.3z"></path><path class="st1" d="M359.2,351.6c-0.2,0-0.3-0.1-0.4-0.2c-0.1-0.2-0.1-0.5,0.2-0.7c0,0,0,0,0,0c4.3-2.5,8.8-4.8,13.4-6.6
		c2.8-1.2,5.7-2.5,8.4-3.8c8.8-4.4,14.4-9.6,17.1-15.9c0.1-0.3,0.3-0.4,0.6-0.4c0.3,0.1,0.4,0.3,0.4,0.6c0,0,0,0.1-0.1,0.1
		c-2.8,6.5-8.5,11.8-17.6,16.4c-2.8,1.4-5.7,2.6-8.5,3.9c-4.6,1.8-9,4-13.3,6.5C359.4,351.6,359.3,351.6,359.2,351.6z"></path><path class="st1" d="M361.9,352.6c-0.3,0-0.5-0.2-0.5-0.5c0-0.3,0.2-0.5,0.5-0.5c5.5-0.9,11.1-1.3,16.8-1.3c3.9-0.1,8-0.2,11.9-0.6
		c8-0.8,18.8-3.6,24.8-11.8c0.2-0.2,0.5-0.3,0.7-0.1c0.2,0.2,0.3,0.5,0.1,0.7c-6.2,8.5-17.3,11.3-25.5,12.2c-4,0.4-8.1,0.5-12,0.6
		C373.1,351.4,367.5,351.8,361.9,352.6L361.9,352.6z"></path><path class="st1" d="M357,347.9c-1.2-0.5-2.5-0.8-3.8-0.8c-1.3,0-2.6,0.4-3.5,1.4c-0.9,1-1.1,2.4-0.4,3.6c0.8,1.2,2.3,1.5,3.7,1.9
		c1.9,0.5,3.7,1.4,5.4,2.6c1.1,0.8,2.3,1.9,3.7,1.9c1.2,0,2.3-0.7,2.9-1.7C367.9,351.9,360.4,349.1,357,347.9z"></path><path class="st1" d="M331.2,350.9c-14.4,4.5-25.9,18-27,33.1c-1.2,16,9.8,32.1,25.2,36.8s33.5-2.6,41.4-16.5
		c10.4-18.3,0.9-46.8-19.6-53.4C344.7,348.8,337.7,348.8,331.2,350.9z"></path><path class="st0" d="M332.3,354c-13.1,4.1-23.5,16.4-24.5,30.1c-1.1,14.6,8.9,29.2,22.9,33.5s30.5-2.3,37.7-15
		c9.4-16.6,0.9-42.6-17.8-48.6C344.6,352.1,338.2,352.1,332.3,354z"></path><path class="st1" d="M319.7,397.4c8.4-13,17.2-26,26.1-38.7l4.7,3.3c-8.8,12.6-17.6,25.6-26,38.6L319.7,397.4z"></path><path class="st1" d="M319.8,390.4l2.7-5.1c4.9,2.6,9.6,5.4,14.1,8.6l0.5,0.4c2.2,1.6,4.3,3,6.5,3.5c1.8,0.4,4.1-0.1,4.8-1.5
		c0.4-1.3,0.2-2.7-0.6-3.8c-1.2-1.6-2.6-3-4.2-4.1l-9.8-7.8l3.2-4.7c4.1,2.4,8.4,4.6,12.7,6.5c0.9,0.4,3.7,1.6,4.9,0.8
		c0.7-0.7,1-1.7,0.8-2.6c-0.4-1.5-1.2-3-2.3-4.1c-4.5-5.4-10.6-9.1-17.5-10.6l1.2-5.6c8.2,1.7,15.5,6.1,20.8,12.5
		c1.7,1.9,2.9,4.2,3.5,6.8c0.7,3.2-0.6,6.5-3.3,8.4c-1.6,1-3.5,1.4-5.3,1.1l0.2,0.3c1.9,2.8,2.2,6.3,0.9,9.4
		c-2,4.2-7.2,5.5-11.2,4.6c-3.4-0.7-6.1-2.7-8.6-4.4l-0.5-0.4C329,395.6,324.5,392.9,319.8,390.4z"></path><path class="st1" d="M348.3,369.7c1.4-2.7,3-5.2,4.8-7.6l4.6,3.5c-1.6,2.1-3.1,4.4-4.3,6.8L348.3,369.7z"></path><path class="st1" d="M393.5,287.8c-6.4,4.5-11.3,10.8-13.9,18.2c5.4-4.4,13.2-5.8,18.7-3.3s6.1,12.1,4.4,18.2
		c5.6-3.9,18.1-30.8,15.9-34.6C412.2,275.1,402,281.8,393.5,287.8z"></path></g><g id="shadow"><path class="st2" d="M230.4,98.5c26.3-4,53.6-7,79.3,0.2c3.6,1,7.2,2.2,10.1,4.6s5.1,5.9,4.8,9.6c-0.3,5-4.6,8.6-8.8,11.3
		c-12.6,8-27.1,12.1-41.5,15.8"></path><path class="st2" d="M105.9,111.9c-4.6-5.9-6.5-14.4-2.9-20.9c4-7,12.8-9.2,20.6-10.9c27-5.7,55.4-11.3,81.7-3.3
		c21.8,6.6,39.7,21.9,56.9,36.7l91.2,78.6c16.7-11.6,33.8-22.5,51.4-32.8c5-3,12-5.7,16.1-1.6s1.8,10.9-1,15.9
		c-11.5,20.8-26.3,39.7-43.7,56c0.6,5.8-0.5,36.9-6,35c-3.6-1.2-17.2-24.9-24.2-32.3c-7.5-7.9-174.4-82.4-201.1-95.9
		C132.1,129.9,115,123.7,105.9,111.9z"></path><path class="st2" d="M202.7,139.2c-1,17.9-1,35.9,1.7,53.5s8.2,35.1,17.5,50.4c2.7,4.4,5.8,8.8,10.1,11.8c4.3,3,9.9,4.5,14.8,2.8
		s8.4-6.3,10.1-11.2c1.7-4.9,1.8-10.2,1.7-15.5c-0.1-22.4-2-44.8-3.9-67.1"></path><path class="st1" d="M368.4,227.7h-0.5c-4.4-0.2-8.3-2.9-11.4-5c-6.9-4.6-14.6-9.8-19-17.5c-0.1-0.3,0-0.5,0.2-0.7
		c0.2-0.1,0.5,0,0.6,0.2c4.3,7.6,12,12.7,18.7,17.2c3,2,6.8,4.6,10.9,4.8c2.3,0.1,4.6-0.7,6.3-2.3c1.2-1,1.8-2.5,1.9-4
		c0-0.3,0.2-0.5,0.5-0.5s0.5,0.2,0.5,0.5c0,1.8-0.8,3.5-2.2,4.7C373.2,226.8,370.8,227.7,368.4,227.7z"></path><path class="st0" d="M165.8,91.5c1.1,1.1,2.5,2.1,4.1,1.9c1-0.2,1.9-0.6,2.6-1.3l8.9-6.3c1.4-1,1.8-3,0.9-4.5
		c-1.3-2-2.4-4.2-3.4-6.4c-0.2-0.4-9.8,1-10.8,1c-1.9,0.2-3.9,0.3-5.8,0.3c-1.2,0-3.6-0.4-4.6,0.3C154.2,78.8,163.9,89.6,165.8,91.5
		z"></path><path class="st0" d="M176,95.7c-0.7,0.6-1.5,1.4-1.4,2.3c0.2,0.8,0.7,1.6,1.5,2l4.1,3.1c1.3,1,3.2,0.9,4.4-0.2l8.4-8.1
		c1.3-1.3,1.4-3.4,0.1-4.7c-0.2-0.2-0.4-0.4-0.6-0.5c-1-0.6-2-1.4-2.9-2.1c-1.3-1-3.1-1-4.3,0.1C182,90.2,179,93,176,95.7z"></path><path class="st0" d="M206,117.2l3.4,2.8c1.4,1.2,3.5,1,4.7-0.4c0,0,0,0,0,0l5.7-6.8c1.2-1.4,1-3.5-0.5-4.7
		c-0.1-0.1-0.3-0.2-0.4-0.3l-2-1.2c-1.4-0.8-2.8-2-4.4-1.1s-3.2,3.3-4.5,4.6l-2.2,2.3c-1.3,1.3-1.3,3.4,0,4.7
		C205.9,117.1,205.9,117.2,206,117.2z"></path><path class="st0" d="M219.1,127.5l2,1c1.4,0.7,3.1,0.4,4.1-0.9c2.1-2.7,4.4-5.3,6.7-7.8c1.2-1.4,1.1-3.5-0.2-4.7
		c-0.1-0.1-0.3-0.2-0.4-0.3c-0.9-0.6-1.7-1.2-1.9-1.3c-2.1-1.4-3-1.3-4.6,0.6c-2.3,2.7-4.5,5.5-6.8,8.3c-1.2,1.4-1,3.5,0.5,4.7
		C218.7,127.3,218.9,127.4,219.1,127.5z"></path><path class="st0" d="M230.8,130.8c-1.1,1.4-0.9,3.5,0.6,4.7c0.1,0,0.1,0.1,0.2,0.1l2.6,1.8c0.4,0.3,0.9,0.5,1.4,0.6
		c0.7-0.1,1.3-0.4,1.7-0.9c3-2.8,5.8-5.7,8.5-8.8c1.2-1.4,1-3.5-0.4-4.7c-0.2-0.2-0.4-0.3-0.6-0.4l-2.7-1.5
		c-2.4-1.3-2.9-1.6-4.7,0.6L230.8,130.8z"></path><path class="st0" d="M243.5,138.1c-1.2,1.4-1.2,3.5,0.2,4.7c0.1,0.1,0.3,0.2,0.5,0.4l3.9,2.5c0.4,0.3,0.9,0.5,1.4,0.4
		c0.4-0.1,0.7-0.4,0.9-0.7l7.8-9.2c1.2-1.4,1-3.5-0.4-4.7c-0.2-0.1-0.4-0.3-0.6-0.4c-0.8-0.4-1.5-0.9-2.3-1.4
		c-1.3-0.9-3.1-0.7-4.2,0.4C248.3,132.8,245.9,135.5,243.5,138.1z"></path><path class="st0" d="M255.5,151.2l3.4,2.8c1.4,1.2,3.5,1,4.7-0.4l5.7-6.9c1.2-1.4,1-3.5-0.5-4.7c-0.1-0.1-0.3-0.2-0.4-0.3
		c-1-0.6-1.9-1.1-2-1.2c-1.4-0.8-2.8-2-4.4-1.1s-3.2,3.3-4.5,4.6l-2.2,2.3c-1.3,1.3-1.2,3.4,0.1,4.7
		C255.4,151.2,255.4,151.2,255.5,151.2z"></path><path class="st0" d="M268.6,161.6l2,1c1.4,0.7,3.1,0.4,4.1-0.9c2.1-2.7,4.4-5.3,6.7-7.8c1.2-1.4,1.1-3.5-0.2-4.7
		c-0.1-0.1-0.3-0.2-0.4-0.3c-0.9-0.6-1.7-1.1-1.9-1.3c-2.1-1.4-3-1.4-4.6,0.6c-2.3,2.7-4.5,5.5-6.8,8.3c-1.2,1.4-1,3.5,0.5,4.7
		C268.2,161.3,268.4,161.5,268.6,161.6z"></path><path class="st0" d="M280.3,164.9c-1.1,1.4-0.9,3.5,0.6,4.7c0.1,0,0.1,0.1,0.2,0.1l2.6,1.8c0.8,0.8,2,0.9,2.8,0.1
		c0.1-0.1,0.2-0.2,0.3-0.4c3-2.8,5.8-5.7,8.5-8.8c1.2-1.4,1-3.5-0.4-4.7c-0.2-0.2-0.4-0.3-0.6-0.4l-2.7-1.5c-2.5-1.3-3-1.6-4.7,0.6
		C284.7,159.2,282.5,162,280.3,164.9z"></path><path class="st0" d="M293,172.1c-1.2,1.4-1.1,3.5,0.2,4.7c0.1,0.1,0.3,0.2,0.4,0.3l3.9,2.5c0.4,0.3,0.9,0.5,1.4,0.4
		c0.4-0.1,0.7-0.4,0.9-0.7l7.8-9.2c1.2-1.4,1-3.5-0.4-4.7c-0.2-0.1-0.4-0.3-0.6-0.4c-0.8-0.4-1.5-0.9-2.3-1.4
		c-1.3-0.9-3.1-0.7-4.2,0.4C297.8,166.9,295.5,169.5,293,172.1z"></path><path class="st1" d="M202.6,163.6c-0.3,0-0.5-0.2-0.5-0.5l-1.5-24.7c0-0.3,0.2-0.5,0.5-0.5c0,0,0,0,0,0c0.3,0,0.5,0.2,0.5,0.5
		l1.5,24.7C203.1,163.3,202.9,163.6,202.6,163.6C202.6,163.6,202.6,163.6,202.6,163.6L202.6,163.6z"></path><path class="st1" d="M257.4,189.9c-0.3,0-0.5-0.2-0.5-0.5c-0.4-8.5-1.4-17-3.1-25.3c-0.1-0.3,0.1-0.5,0.4-0.6c0,0,0,0,0,0
		c0.3,0,0.5,0.1,0.6,0.4c1.7,8.4,2.7,16.9,3.1,25.4C257.9,189.7,257.7,189.9,257.4,189.9L257.4,189.9z"></path><path class="st1" d="M288.7,136.1c-0.1,0-0.2,0-0.3-0.1l-46.8-38.8c-0.2-0.2-0.2-0.5,0-0.7c0.2-0.2,0.4-0.2,0.6-0.1l46.9,38.8
		c0.2,0.2,0.2,0.5,0.1,0.7C289,136,288.9,136.1,288.7,136.1L288.7,136.1z"></path></g></svg>